<?xml version="1.0" encoding="UTF-8"?>
<svg version="1.1" viewBox="0 0 1440 1440" width="360" height="360" xmlns="http://www.w3.org/2000/svg">
<path transform="translate(645,406)" d="m0 0h25l21 2 22 4 25 7 19 7 20 9 19 10 11 7 20 14 13 11 10 9 7 6 7 8 10 11 11 14 9 11 6 11-1 2-9-10-11-11-14-11-14-10-18-10-23-11-16-6-22-6-29-5-8-1h-32l-33 4-27 6h47l19 2 27 5 29 9 20 8 21 11 21 14 18 14 7 7 8 7 9 9 9 11 10 14 9 15 8 16 7 18 6 19 5 25 3 27 1 15v32l-3-4-3-16-4-23-4-15-8-22-8-15-8-12-11-13-14-14-17-13-13-9-21-11-17-7-19-6-24-5-19-2h-26l-25 3-24 6-20 7-19 9-18 11-12 9-13 10v2l21-8 22-5 13-2 13-1h20l22 2 24 5 18 6 18 8 18 10 13 10 14 12 8 7 10 11 10 13 12 20 10 21 8 25 3 12 1 14-3-4-8-19-8-15-12-17-22-22-14-10-18-10-20-8-16-5-23-3h-26l-19 3-19 5-13 5-16 8-11 7-11 8-12 11-8 8-11 15-9 16-8 16-7 18-6 25-3 17-2 25v16l2 25 5 25 4 16 5 12 6 7v2l3 1 7 8 8 7 16 13 20 12 20 9 16 5 26 5 20 2h31l30-4 25-6 27-10 17-8 20-12h2l-2 4-13 11-21 14-17 10-22 10-27 9-25 5-20 3-24 2h-24l-36-3-30-5-23-5-21-6-20-7-24-11-24-14-14-9-16-13-11-9-22-22-9-11-12-15-12-19-10-18-10-21-10-27-7-27-5-30-1-8v-49l4-31 6-26 10-30 10-23 14-27 14-22 13-18 9-11 8-10 6-7h2l2-4 16-16 8-7 14-12 19-14 24-16 28-15 20-9 33-11 29-6 14-2z" fill="#24A6DF"/>
<path transform="translate(604,488)" d="m0 0h5l-1 4-16 8-14 9-14 10-13 11-8 7-13 14-13 17-9 13-8 13-11 23-10 28-7 31-3 23-1 20v17l1 4 3-1 7-16 12-22 11-15 7-9 7-8 22-18h2v-2l16-10h3l-1 4-12 17-10 15-8 16-8 18-7 18-6 22-5 24-3 24-1 9v30l3 30 5 21 7 19 7 14 5 5 4 7 3 3 8 3 6 16 6 7v2l3 1 7 8 8 7 16 13 20 12 20 9 16 5 26 5 20 2h31l30-4 25-6 27-10 17-8 20-12h2l-2 4-13 11-21 14-17 10-22 10-27 9-25 5-20 3-24 2h-24l-36-3-21-4-1-3-3 1-4-4-10-4-16-8-9-5-9-6-14-9-7-5-1-2-5-3-12-10-8-7-5-4v-2l-4-2-8-7-7-8-9-10-2-6h-2v-3l-3-1-7-12-3-5v-2h-2l-9-19-8-19-7-24-4-18-4-28-1-19v-25l2-30 4-24 6-27 6-20 7-19 9-20 8-16 16-24 9-12 8-10h2l2-4 3-4h2l2-4h2v-2h2v-2l11-9 13-11 15-10 21-12 10-5 20-8 16-5z" fill="#0E6DB7"/>
<path transform="translate(975,797)" d="m0 0h32l8 10 11 16 12 17 14 20 10 15h2l14-20 24-34 10-15 7-9h32v168l-2 2h-26v-129h-2l-2 5-13 18-12 17-26 36-4 4-4-2-8-9-24-34-13-18-11-16-1 69v57l-2 2h-25l-1-1z" fill="#0E6EB8"/>
<path transform="translate(465,766)" d="m0 0h3l5 18 2 12 4 18 5 20 6 18 12 32 6 15 14 31 5 7 7 14 5 6 6 8v2h2l7 8 5 5 10 11 5 2 11 8 6 4 9 5 4 3 5 2 11 6 9 3 3 2 6 2 24 7 25 5 7 1 17 1 5 2 4 1-1 2-26 4-44 1-13-3h-6l-7-3h-5l-9-4-11-4-12-3-8-3-17-6-24-12v-2h-3v-2l-4-1-14-9-3-3-9-7v-2h-2v-2l-3-1-7-8-6-9-6-10-7-15-8-18-3-10-5-24-4-34v-31l3-27 4-19 3-12z" fill="#044FB1"/>
<path transform="translate(650,794)" d="m0 0h28l17 4 16 8 11 8 10 10 8 13 6 15 3 15 1 9v15l-3 17-6 17-6 11-9 11-14 11-14 7-21 5h-29l-16-4-15-6-10-7-9-8-9-12-6-12-5-15-2-13v-22l3-15 5-14 6-11 8-10 9-9 14-9 11-5zm14 24-15 1-13 4-10 6-8 7-9 14-5 15-1 7v20l4 16 8 16 11 11 8 5 13 4 4 1h23l13-3 13-7 9-8 8-13 4-11 2-13v-12l-2-14-5-14-7-11-6-7-11-7-12-5z" fill="#0E6DB7"/>
<path transform="translate(835,800)" d="m0 0h17l12 3 9 5 6 5 5 7 3 8v17l-4 11-6 8-8 7-14 7 1 3 4 2 5 5v2l4 2 10 10 8 7 4 4v2l4 2 2-10 1-24v-13h22l2 1v10l-3 25-7 21-2 5 17 16 13 13v2h2v2l4 2 5 5v2l-30-1-10-10-7-8-7-5-13 13-12 8-15 5-6 1h-19l-13-3-10-5-9-7-7-10-5-12-1-6v-15l4-13 4-8 9-10 9-8 4-4-4-2-9-8-7-12-2-8v-10l4-13 6-9 7-6 13-6zm0 15-8 4-6 7-2 5-1 11 3 10 6 7 11 8 6 2 10-6 6-7 4-9v-16l-4-8-7-6-5-2zm-5 71-8 6-6 8-4 10-1 16 2 10 5 10 8 7 12 5h19l13-5 9-7 7-7-2-4-12-11-32-32-7-6z" fill="#0E6EB8"/>
<path transform="translate(561,972)" d="m0 0 5 3 11 10 15 11 18 10 16 7 16 5 26 5 20 2h31l30-4 25-6 27-10 17-8 20-12h2l-2 4-13 11-21 14-17 10-22 10-27 9-13 3h-5l-5-1-4-2-17-1-24-4-22-6-10-3-24-10-6-4-7-3-7-5-6-3-10-7-10-8-10-11-1-3z" fill="#24A5DF"/>
<path transform="translate(575,995)" d="m0 0 4 2 12 8 9 5 4 3 5 2 11 6 9 3 3 2 6 2 24 7 25 5 7 1 17 1 5 2 4 1-1 2-10-1-5-1-25-3-20-3-15-4-6-2-10-3-8-4-5-2-11-7-5-4-7-4-10-7-7-6z" fill="#0E6DB7"/>
<path transform="translate(838,985)" d="m0 0h2l-2 4-13 11-19 13-4-1 3-6h-2v-2l16-8 11-6z" fill="#137CC1"/>
<path transform="translate(879,521)" d="m0 0 4 1 11 14 6 11-1 2-9-10-9-9-2-7z" fill="#23A3DD"/>
<path transform="translate(843,757)" d="m0 0 5 1 1 6h3l3 15v7l-3-4-8-19z" fill="#1D93D2"/>
<path transform="translate(695,1042)" d="m0 0h16l5 2 4 1-1 2-10-1-5-1-9-1z" fill="#0F6FB9"/>
<path transform="translate(1146,797)" d="m0 0h5l-1 14-3-1-1-4v-3z" fill="#0553B1"/>
<path transform="translate(879,521)" d="m0 0 4 1 6 8-1 2-4-2-1-2-2 1-2-6z" fill="#1279BF"/>
</svg>
